# xmcd CD database file
#
# Track frame offsets:
#	150
#	20717
#	31509
#	44699
#	66965
#	78292
#	94117
#	110766
#	128684
#	141873
#	157987
#	174424
#	186550
#	205124
#	222035
#	240987
#	257291
#	274877
#	284140
#
# Disc length: 4111 seconds
#
# Revision: 0
# Processed by: cddbd v1.5.2PL0 Copyright (c) Steve Scherf et al.
# Submitted via: CDex 1.51
#
DISCID=11100d13
DTITLE=Get Happy Brass Band - Salute To New Orleans
DYEAR=2002
DGENRE=Jazz
TTITLE0=Bourbon Street Parade
TTITLE1=If ever I cease to love
TTITLE2=Old Stack O'Lee Blues
TTITLE3=Oh! Lady be good
TTITLE4=Riverside Blues
TTITLE5=Buddy's Habits
TTITLE6=South
TTITLE7=Original Tuxedo Rag
TTITLE8=Joe Avary's Piece
TTITLE9=Till we meet again
TTITLE10=Marie
TTITLE11=The 1919-March
TTITLE12=Friendless Blues
TTITLE13=Mardi Gras in New Orleans
TTITLE14=Linger awhile
TTITLE15=Chinatown, my Chinatown
TTITLE16=When you and I were young, Maggie
TTITLE17=In the Garden
TTITLE18=Bluebells Goodbye
EXTD=YEAR: 2002
EXTT0=
EXTT1=
EXTT2=
EXTT3=
EXTT4=
EXTT5=
EXTT6=
EXTT7=
EXTT8=
EXTT9=
EXTT10=
EXTT11=
EXTT12=
EXTT13=
EXTT14=
EXTT15=
EXTT16=
EXTT17=
EXTT18=
PLAYORDER=
